<svg width="247" height="7" viewBox="0 0 247 7" fill="none" xmlns="http://www.w3.org/2000/svg">
<path fill-rule="evenodd" clip-rule="evenodd" d="M3.5 0H0V3.5V7H3.5C1.567 7 0 5.433 0 3.5C0 1.567 1.567 0 3.5 0ZM13.5 0C15.433 0 17 1.567 17 3.5C17 5.433 15.433 7 13.5 7H26.5C24.567 7 23 5.433 23 3.5C23 1.567 24.567 0 26.5 0H13.5ZM36.5 0C38.433 0 40 1.567 40 3.5C40 5.433 38.433 7 36.5 7H49.5C47.567 7 46 5.433 46 3.5C46 1.567 47.567 0 49.5 0H36.5ZM59.5 0C61.433 0 63 1.567 63 3.5C63 5.433 61.433 7 59.5 7H72.5C70.567 7 69 5.433 69 3.5C69 1.567 70.567 0 72.5 0H59.5ZM82.5 0C84.433 0 86 1.567 86 3.5C86 5.433 84.433 7 82.5 7H95.5C93.567 7 92 5.433 92 3.5C92 1.567 93.567 0 95.5 0H82.5ZM105.5 0C107.433 0 109 1.567 109 3.5C109 5.433 107.433 7 105.5 7H118.5C116.567 7 115 5.433 115 3.5C115 1.567 116.567 0 118.5 0H105.5ZM128.5 0C130.433 0 132 1.567 132 3.5C132 5.433 130.433 7 128.5 7H141.5C139.567 7 138 5.433 138 3.5C138 1.567 139.567 0 141.5 0H128.5ZM151.5 0C153.433 0 155 1.567 155 3.5C155 5.433 153.433 7 151.5 7H164.5C162.567 7 161 5.433 161 3.5C161 1.567 162.567 0 164.5 0H151.5ZM174.5 0C176.433 0 178 1.567 178 3.5C178 5.433 176.433 7 174.5 7H187.5C185.567 7 184 5.433 184 3.5C184 1.567 185.567 0 187.5 0H174.5ZM197.5 0C199.433 0 201 1.567 201 3.5C201 5.433 199.433 7 197.5 7H210.5C208.567 7 207 5.433 207 3.5C207 1.567 208.567 0 210.5 0H197.5ZM220.5 0C222.433 0 224 1.567 224 3.5C224 5.433 222.433 7 220.5 7H233.5C231.567 7 230 5.433 230 3.5C230 1.567 231.567 0 233.5 0H220.5ZM243.5 0C245.433 0 247 1.567 247 3.5C247 5.433 245.433 7 243.5 7H247V3.5V0H243.5Z" fill="white"/>
</svg>
