<svg width="22" height="22" viewBox="0 0 22 22" fill="none" xmlns="http://www.w3.org/2000/svg">
<path d="M5.5 0C4.74375 0 4.125 0.61875 4.125 1.375V20.625C4.125 21.3813 4.74375 22 5.5 22H19.25C20.0063 22 20.625 21.3813 20.625 20.625V5.5L15.125 0H5.5Z" fill="#E2E5E7"/>
<path d="M16.5 5.5H20.625L15.125 0V4.125C15.125 4.88125 15.7437 5.5 16.5 5.5Z" fill="#B0B7BD"/>
<path d="M20.625 9.625L16.5 5.5H20.625V9.625Z" fill="#CAD1D8"/>
<path d="M17.875 17.875C17.875 18.2531 17.5656 18.5625 17.1875 18.5625H2.0625C1.68437 18.5625 1.375 18.2531 1.375 17.875V11C1.375 10.6219 1.68437 10.3125 2.0625 10.3125H17.1875C17.5656 10.3125 17.875 10.6219 17.875 11V17.875Z" fill="#F15642"/>
<path d="M4.37158 13.026C4.37158 12.8445 4.51458 12.6465 4.74489 12.6465H6.01471C6.72971 12.6465 7.37321 13.125 7.37321 14.0421C7.37321 14.9111 6.72971 15.3951 6.01471 15.3951H5.09689V16.1211C5.09689 16.3631 4.94289 16.4999 4.74489 16.4999C4.56339 16.4999 4.37158 16.3631 4.37158 16.1211V13.026ZM5.09689 13.3388V14.7083H6.01471C6.38321 14.7083 6.67471 14.3831 6.67471 14.0421C6.67471 13.6578 6.38321 13.3388 6.01471 13.3388H5.09689Z" fill="white"/>
<path d="M8.44981 16.5C8.26831 16.5 8.07031 16.401 8.07031 16.1597V13.037C8.07031 12.8397 8.26831 12.696 8.44981 12.696H9.70862C12.2207 12.696 12.1657 16.5 9.75812 16.5H8.44981ZM8.79631 13.367V15.8297H9.70862C11.1929 15.8297 11.2589 13.367 9.70862 13.367H8.79631Z" fill="white"/>
<path d="M13.0565 13.411V14.2848H14.4583C14.6563 14.2848 14.8543 14.4828 14.8543 14.6746C14.8543 14.8561 14.6563 15.0046 14.4583 15.0046H13.0565V16.1589C13.0565 16.3514 12.9197 16.4992 12.7272 16.4992C12.4852 16.4992 12.3374 16.3514 12.3374 16.1589V13.0363C12.3374 12.839 12.4859 12.6953 12.7272 12.6953H14.657C14.899 12.6953 15.042 12.839 15.042 13.0363C15.042 13.2123 14.899 13.4103 14.657 13.4103H13.0565V13.411Z" fill="white"/>
<path d="M17.1875 18.5625H4.125V19.25H17.1875C17.5656 19.25 17.875 18.9406 17.875 18.5625V17.875C17.875 18.2531 17.5656 18.5625 17.1875 18.5625Z" fill="#CAD1D8"/>
</svg>
